<svg xmlns="http://www.w3.org/2000/svg" enable-background="new 0 0 32 32" viewBox="0 0 32 32" id="list"><path d="M5 1C2.7939 1 1 2.7944 1 5s1.7939 4 4 4 4-1.7944 4-4S7.2061 1 5 1zM5 7C3.8975 7 3 6.103 3 5s.8975-2 2-2 2 .897 2 2S6.1025 7 5 7zM5 12c-2.2061 0-4 1.7944-4 4s1.7939 4 4 4 4-1.7944 4-4S7.2061 12 5 12zM5 18c-1.1025 0-2-.897-2-2s.8975-2 2-2 2 .897 2 2S6.1025 18 5 18zM5 23c-2.2061 0-4 1.7944-4 4s1.7939 4 4 4 4-1.7944 4-4S7.2061 23 5 23zM5 29c-1.1025 0-2-.897-2-2s.8975-2 2-2 2 .897 2 2S6.1025 29 5 29zM12 6h18c.5527 0 1-.4478 1-1s-.4473-1-1-1H12c-.5527 0-1 .4478-1 1S11.4473 6 12 6zM30 15H12c-.5527 0-1 .4478-1 1s.4473 1 1 1h18c.5527 0 1-.4478 1-1S30.5527 15 30 15zM30 26H12c-.5527 0-1 .4478-1 1s.4473 1 1 1h18c.5527 0 1-.4478 1-1S30.5527 26 30 26z"></path></svg>